<svg width="16" height="16" viewBox="0 0 16 16" fill="none" xmlns="http://www.w3.org/2000/svg">
<path fill-rule="evenodd" clip-rule="evenodd" d="M15 8C15 11.866 11.866 15 8 15C4.13401 15 1 11.866 1 8C1 4.13401 4.13401 1 8 1C11.866 1 15 4.13401 15 8ZM13.5 8C13.5 11.0376 11.0376 13.5 8 13.5C6.75165 13.5 5.60043 13.0841 4.67736 12.3833L12.3833 4.67736C13.0841 5.60043 13.5 6.75165 13.5 8ZM11.3226 3.6167C10.3996 2.9159 9.24835 2.5 8 2.5C4.96243 2.5 2.5 4.96243 2.5 8C2.5 9.24835 2.9159 10.3996 3.6167 11.3226L11.3226 3.6167Z" fill="#606060"/>
</svg>
