<svg width="16" height="16" viewBox="0 0 16 16" fill="none" xmlns="http://www.w3.org/2000/svg">
<path fill-rule="evenodd" clip-rule="evenodd" d="M15 8C15 11.866 11.866 15 8 15C4.13401 15 1 11.866 1 8C1 4.13401 4.13401 1 8 1C11.866 1 15 4.13401 15 8ZM5.5 8C5.5 8.49445 5.64662 8.9778 5.92133 9.38893C6.19603 9.80005 6.58648 10.1205 7.04329 10.3097C7.50011 10.4989 8.00277 10.5484 8.48773 10.452C8.97268 10.3555 9.41814 10.1174 9.76777 9.76777C10.1174 9.41814 10.3555 8.97268 10.452 8.48773C10.5484 8.00277 10.4989 7.50011 10.3097 7.04329C10.1205 6.58648 9.80005 6.19603 9.38893 5.92133C9.14252 5.75668 8.87017 5.63805 8.58504 5.56942L8.36525 7.4355L4.9449 4.4166L8.97306 2.27502L8.76128 4.07311C9.28091 4.17385 9.77796 4.37724 10.2223 4.67412C10.8801 5.11365 11.3928 5.73836 11.6955 6.46927C11.9983 7.20017 12.0775 8.00444 11.9231 8.78036C11.7688 9.55628 11.3878 10.269 10.8284 10.8284C10.269 11.3878 9.55629 11.7688 8.78036 11.9231C8.00444 12.0775 7.20017 11.9983 6.46927 11.6955C5.73836 11.3928 5.11365 10.8801 4.67412 10.2223C4.2346 9.56448 4 8.79113 4 8L5.5 8Z" fill="#40A040"/>
</svg>
