<svg width="16" height="16" viewBox="0 0 16 16" fill="none" xmlns="http://www.w3.org/2000/svg">
<path fill-rule="evenodd" clip-rule="evenodd" d="M14.9604 7.25H11.0001H10.5987L10.3761 7.58397L9.22671 9.30804L7.71163 4.76283L7.13905 3.04509L6.3293 4.66459L5.0366 7.25H1.03979C1.41402 3.73668 4.38746 1 8.00009 1C11.6127 1 14.5862 3.73668 14.9604 7.25ZM14.9604 8.75H11.4015L9.62416 11.416L8.77354 12.692L8.28861 11.2372L6.86119 6.95491L6.17094 8.33541L5.96365 8.75H5.50012H1.03979C1.41402 12.2633 4.38746 15 8.00009 15C11.6127 15 14.5862 12.2633 14.9604 8.75Z" fill="#EE9D28"/>
</svg>
