<svg width="16" height="16" fill="none" xmlns="http://www.w3.org/2000/svg"><path fill-rule="evenodd" clip-rule="evenodd" d="M8 15A7 7 0 1 0 8 1a7 7 0 0 0 0 14ZM6.77 5.41c.066-.178.164-.356.296-.535.065-.119.196-.238.393-.357.197-.12.393-.179.59-.179.197 0 .394.06.59.179.132.06.23.149.295.268.132.119.23.238.295.357.066.178.099.387.099.625 0 .178-.066.387-.197.625a1.3 1.3 0 0 1-.393.625l-1.082 1.25c-.197.178-.36.387-.492.625a1.637 1.637 0 0 0-.197.803v.893H8.64v-.803c0-.179.066-.357.197-.536l.393-.536.59-.625c.197-.238.361-.476.492-.714.197-.238.361-.476.492-.714.131-.298.197-.625.197-.982 0-.358-.066-.685-.197-.983a1.55 1.55 0 0 0-.492-.892 2.526 2.526 0 0 0-.983-.536C9 3.089 8.574 3 8.049 3c-.328 0-.656.06-.983.179-.263.06-.525.148-.787.267-.197.12-.361.268-.492.447l-.394.536A4.653 4.653 0 0 0 5 5.857v.09h1.672l.099-.536ZM7.067 13h1.573v-1.429H7.066V13Z" fill="#C04040"/></svg>