<svg width="16" height="16" fill="none" xmlns="http://www.w3.org/2000/svg"><path d="M8 1C4.14 1 1 3.512 1 6.6c0 2.036 1.329 3.86 3.5 4.854V15l3.737-2.803C11.987 12.097 15 9.623 15 6.6 15 3.512 11.86 1 8 1Zm0 9.8h-.233L5.9 12.2v-1.692l-.449-.173C3.57 9.611 2.4 8.18 2.4 6.6c0-2.316 2.512-4.2 5.6-4.2 3.088 0 5.6 1.884 5.6 4.2 0 2.316-2.512 4.2-5.6 4.2Z" fill="#C04040"/><path d="M6.25 7.3a1.05 1.05 0 1 0 0-2.1 1.05 1.05 0 0 0 0 2.1ZM9.75 7.3a1.05 1.05 0 1 0 0-2.1 1.05 1.05 0 0 0 0 2.1Z" fill="#C04040"/><path d="M8 1C4.14 1 1 3.512 1 6.6c0 2.036 1.328 3.86 3.5 4.854V15l3.738-2.803C11.988 12.097 15 9.624 15 6.6 15 3.512 11.86 1 8 1Zm0 9.8h-.233L5.9 12.2v-1.692l-.449-.173C3.57 9.611 2.4 8.18 2.4 6.6c0-2.316 2.512-4.2 5.6-4.2 3.088 0 5.6 1.884 5.6 4.2 0 2.316-2.512 4.2-5.6 4.2Z" fill="#C04040"/></svg>